<svg width="156" height="46" viewBox="0 0 156 46" fill="none" xmlns="http://www.w3.org/2000/svg">
<g clip-path="url(#clip0_2238_670)">
<path d="M10.9637 13.7908C9.95348 14.0621 8.96836 14.4291 8.02246 14.8871C8.65149 7.00544 15.2618 0.783203 23.3028 0.783203C31.3437 0.783203 37.9541 7.00544 38.5831 14.8871C37.6372 14.4276 36.6521 14.0605 35.6403 13.7892C34.5454 7.9732 29.4315 3.55945 23.3028 3.55945C17.174 3.55945 12.0586 7.97477 10.9653 13.7908H10.9637ZM37.8662 20.9055C37.5447 20.6702 37.209 20.4506 36.8576 20.2483C36.3823 19.9738 35.8897 19.7369 35.383 19.5377C34.7038 21.9313 33.3297 24.0346 31.4959 25.6188C31.7673 26.6352 31.943 27.6735 32.0167 28.7213C34.7305 26.8375 36.8121 24.1036 37.8678 20.9055H37.8662ZM26.3805 28.29C25.3954 28.5394 24.3648 28.6727 23.3028 28.6727C22.2408 28.6727 21.2118 28.5394 20.2266 28.29C20.0886 29.2358 20.0729 30.1894 20.1749 31.1274C21.1851 31.3376 22.2298 31.4489 23.3012 31.4489C24.3726 31.4489 25.4189 31.3376 26.4291 31.1274C26.5342 30.1769 26.5154 29.2248 26.3789 28.29H26.3805ZM11.2241 19.5393C10.7174 19.7385 10.2233 19.9738 9.74956 20.2483C9.39661 20.4522 9.06405 20.678 8.74248 20.9133C9.79818 24.1115 11.8814 26.8454 14.5967 28.7276C14.6689 27.6877 14.843 26.6493 15.1144 25.6235C13.279 24.0393 11.9033 21.9344 11.2241 19.5393Z" fill="#22BBAD"/>
<path d="M19.4737 18.0781C17.1819 17.2797 14.6689 17.1401 12.2516 17.7503C12.1732 17.217 12.1308 16.6727 12.1308 16.1175C12.1308 15.7112 12.1559 15.3097 12.1983 14.9144C15.5019 14.2274 18.9184 14.6666 21.9114 16.0814C21.0408 16.668 20.2235 17.3346 19.4737 18.0781ZM24.3428 21.1759C25.0487 21.9021 25.6762 22.7256 26.2064 23.6416C26.735 24.556 27.1335 25.5112 27.4096 26.4837C28.2943 26.1308 29.1273 25.6665 29.8912 25.1065C29.568 24.1325 29.1429 23.1757 28.6112 22.2534C28.0778 21.3296 27.4613 20.481 26.7758 19.714C25.9068 20.0968 25.0879 20.5877 24.3428 21.1759ZM26.7648 40.1328C29.0065 37.6185 30.3351 34.4501 30.6065 31.1562C29.6669 31.6127 28.6818 31.9781 27.6606 32.2542C27.2072 34.6383 26.0731 36.8844 24.3381 38.6709C24.7632 39.0081 25.2119 39.3171 25.6872 39.5916C26.037 39.794 26.3978 39.9712 26.7648 40.1328ZM4.45536 36.199C1.39176 30.8943 2.6561 24.2611 7.1409 20.4042C6.87423 19.4035 6.69854 18.3683 6.62325 17.3048C0.113304 21.7907 -1.96988 30.6245 2.0506 37.5871C6.07108 44.5497 14.7646 47.1628 21.9051 43.7685C21.0298 43.1756 20.222 42.5059 19.4831 41.7703C13.8987 43.7293 7.52052 41.5068 4.45536 36.2005V36.199Z" fill="#E2195B"/>
<path d="M19.1926 26.4858C18.3079 26.1328 17.4734 25.6717 16.7094 25.1118C17.0326 24.1361 17.4577 23.1794 17.991 22.2555C18.5244 21.3317 19.1409 20.4831 19.8264 19.7161C20.6954 20.0988 21.5127 20.5898 22.2594 21.178C21.5535 21.9042 20.926 22.7276 20.3958 23.6436C19.8672 24.5581 19.4687 25.5133 19.1926 26.4858ZM34.3475 17.7508C34.4259 17.2175 34.4683 16.6732 34.4683 16.118C34.4683 15.7102 34.4385 15.3102 34.3961 14.9134C31.0941 14.2279 27.6791 14.6671 24.6892 16.0819C25.5598 16.6685 26.3771 17.3351 27.1269 18.0786C29.4187 17.2802 31.9317 17.1406 34.3475 17.7508ZM39.9758 17.3053C39.9005 18.3688 39.7233 19.404 39.4566 20.4031C43.9445 24.2585 45.2089 30.8932 42.1453 36.1995C39.0817 41.5057 32.7019 43.7283 27.1175 41.7692C26.3787 42.5048 25.5708 43.1762 24.6955 43.7691C31.836 47.1649 40.5296 44.5502 44.55 37.5876C48.5705 30.625 46.4873 21.7912 39.9774 17.3053H39.9758ZM15.9941 31.1599C16.2655 34.4522 17.5957 37.6205 19.8358 40.1333C20.2029 39.9717 20.5652 39.7945 20.9135 39.5921C21.3888 39.3176 21.8374 39.0071 22.2625 38.6714C20.5291 36.8849 19.395 34.642 18.9417 32.261C17.9205 31.9865 16.9338 31.6163 15.9941 31.1599Z" fill="#FFCB05"/>
<path d="M55.6963 8.2959H60.6219C61.8235 8.2959 62.8917 8.5296 63.8251 8.99545C64.7584 9.46286 65.4832 10.1216 65.9977 10.9749C66.5122 11.8282 66.771 12.8132 66.771 13.9284C66.771 15.0436 66.5138 16.0286 65.9977 16.8819C65.4832 17.7351 64.7584 18.3955 63.8251 18.8613C62.8917 19.3287 61.8235 19.5609 60.6219 19.5609H55.6963V8.2959ZM60.5262 17.7932C61.3529 17.7932 62.0792 17.6347 62.7066 17.3179C63.3341 17.0011 63.8172 16.5509 64.1561 15.9659C64.4933 15.3808 64.6628 14.7016 64.6628 13.9299C64.6628 13.1582 64.4933 12.4791 64.1561 11.894C63.8188 11.309 63.3357 10.8588 62.7066 10.542C62.0792 10.2252 61.3513 10.0667 60.5262 10.0667H57.7889V17.7932H60.5262Z" fill="#1B1136"/>
<path d="M74.331 11.7816C75.0008 12.3886 75.3365 13.303 75.3365 14.5265V19.5645H73.4369V18.5183C73.1906 18.8932 72.8376 19.1802 72.3827 19.3794C71.9263 19.5786 71.3772 19.6774 70.7325 19.6774C70.0878 19.6774 69.5246 19.5676 69.0415 19.348C68.5583 19.1284 68.185 18.8226 67.923 18.4305C67.6595 18.0383 67.5293 17.596 67.5293 17.1019C67.5293 16.3287 67.8164 15.7091 68.3905 15.2433C68.9646 14.7759 69.8682 14.5437 71.1027 14.5437H73.3239V14.4151C73.3239 13.8144 73.1435 13.3532 72.7843 13.0317C72.4251 12.7101 71.8917 12.5486 71.1827 12.5486C70.6996 12.5486 70.2243 12.6239 69.7584 12.7745C69.2909 12.925 68.8972 13.1336 68.5756 13.4019L67.7866 11.9369C68.2368 11.5934 68.7795 11.3299 69.4133 11.1479C70.047 10.966 70.7168 10.875 71.4258 10.875C72.6918 10.875 73.6612 11.1777 74.331 11.7847V11.7816ZM72.4957 17.8658C72.8878 17.6352 73.1639 17.3058 73.3255 16.8761V15.8785H71.2486C70.0893 15.8785 69.5105 16.2597 69.5105 17.0219C69.5105 17.3874 69.6548 17.6776 69.945 17.8909C70.2352 18.1058 70.6368 18.2124 71.1529 18.2124C71.669 18.2124 72.1051 18.0964 72.4972 17.8658H72.4957Z" fill="#1B1136"/>
<path d="M82.401 19.1012C82.1641 19.2942 81.877 19.4385 81.5398 19.5357C81.2025 19.6314 80.8448 19.68 80.4699 19.68C79.5256 19.68 78.7962 19.4338 78.2801 18.9397C77.7656 18.4456 77.5083 17.7272 77.5083 16.783V12.6453H76.0918V11.036H77.5083V9.07227H79.5209V11.036H81.8237V12.6453H79.5209V16.7344C79.5209 17.1532 79.6229 17.4731 79.8268 17.6927C80.0307 17.9123 80.3256 18.0221 80.7115 18.0221C81.1617 18.0221 81.5382 17.9045 81.8378 17.6676L82.401 19.0997V19.1012Z" fill="#1B1136"/>
<path d="M89.958 11.7816C90.6278 12.3886 90.9635 13.303 90.9635 14.5265V19.5645H89.0638V18.5183C88.8175 18.8932 88.4646 19.1802 88.0097 19.3794C87.5532 19.5786 87.0042 19.6774 86.3595 19.6774C85.7147 19.6774 85.1516 19.5676 84.6684 19.348C84.1853 19.1284 83.812 18.8226 83.55 18.4305C83.2865 18.0383 83.1562 17.596 83.1562 17.1019C83.1562 16.3287 83.4433 15.7091 84.0174 15.2433C84.5916 14.7759 85.4951 14.5437 86.7297 14.5437H88.9509V14.4151C88.9509 13.8144 88.7705 13.3532 88.4113 13.0317C88.052 12.7101 87.5187 12.5486 86.8097 12.5486C86.3265 12.5486 85.8512 12.6239 85.3853 12.7745C84.9179 12.925 84.5241 13.1336 84.2025 13.4019L83.4135 11.9369C83.8637 11.5934 84.4065 11.3299 85.0402 11.1479C85.674 10.966 86.3438 10.875 87.0528 10.875C88.3187 10.875 89.2881 11.1777 89.958 11.7847V11.7816ZM88.1226 17.8658C88.5148 17.6352 88.7909 17.3058 88.9525 16.8761V15.8785H86.8755C85.7163 15.8785 85.1375 16.2597 85.1375 17.0219C85.1375 17.3874 85.2818 17.6776 85.572 17.8909C85.8622 18.1058 86.2638 18.2124 86.7799 18.2124C87.2959 18.2124 87.732 18.0964 88.1242 17.8658H88.1226Z" fill="#1B1136"/>
<path d="M98.3451 19.3542C97.5341 19.108 96.894 18.7802 96.4219 18.3724L97.1466 16.7458C97.6078 17.1113 98.1741 17.4093 98.8455 17.6399C99.5168 17.8704 100.19 17.9865 100.866 17.9865C101.704 17.9865 102.328 17.8532 102.742 17.5834C103.155 17.3152 103.362 16.9607 103.362 16.5215C103.362 16.2 103.246 15.9333 103.015 15.7247C102.784 15.5161 102.493 15.3514 102.138 15.2338C101.784 15.1162 101.3 14.9813 100.689 14.8323C99.829 14.6284 99.1357 14.4244 98.6039 14.2205C98.0721 14.0166 97.6156 13.6967 97.236 13.2622C96.8548 12.8277 96.665 12.2395 96.665 11.4992C96.665 10.8765 96.8344 10.3103 97.1717 9.80051C97.509 9.29075 98.0188 8.88608 98.7011 8.58492C99.3835 8.28377 100.216 8.13477 101.205 8.13477C101.892 8.13477 102.568 8.22103 103.233 8.392C103.898 8.56453 104.472 8.81079 104.955 9.13233L104.295 10.7589C103.801 10.4687 103.286 10.2491 102.75 10.0985C102.213 9.94795 101.693 9.87423 101.189 9.87423C100.362 9.87423 99.7474 10.0138 99.3459 10.293C98.9427 10.5722 98.7419 10.9424 98.7419 11.4035C98.7419 11.7251 98.8564 11.9886 99.0886 12.1925C99.3192 12.3964 99.611 12.5579 99.9655 12.6756C100.32 12.7932 100.803 12.9281 101.415 13.0787C102.253 13.2716 102.938 13.4724 103.476 13.6825C104.013 13.8912 104.472 14.2111 104.853 14.6409C105.235 15.0707 105.424 15.6494 105.424 16.3788C105.424 17.0015 105.255 17.5646 104.918 18.0696C104.58 18.5747 104.068 18.9762 103.38 19.2774C102.693 19.5785 101.857 19.7275 100.869 19.7275C100 19.7275 99.1608 19.6036 98.3498 19.3574L98.3451 19.3542Z" fill="#1B1136"/>
<path d="M108.426 19.113C107.719 18.7381 107.165 18.2142 106.768 17.5429C106.371 16.8716 106.172 16.1124 106.172 15.2654C106.172 14.4184 106.371 13.6609 106.768 12.9958C107.165 12.3308 107.715 11.81 108.418 11.4352C109.121 11.0603 109.924 10.8721 110.825 10.8721C111.672 10.8721 112.415 11.0446 113.055 11.3865C113.694 11.73 114.174 12.2241 114.495 12.8672L112.95 13.7691C112.702 13.3723 112.395 13.0742 112.025 12.875C111.654 12.6774 111.25 12.577 110.809 12.577C110.057 12.577 109.435 12.8217 108.942 13.3095C108.448 13.7973 108.202 14.4498 108.202 15.2654C108.202 16.0811 108.446 16.7336 108.934 17.2214C109.422 17.7092 110.048 17.9538 110.81 17.9538C111.251 17.9538 111.656 17.855 112.026 17.6558C112.396 17.4582 112.705 17.1602 112.952 16.7634L114.497 17.6652C114.164 18.3083 113.678 18.8055 113.039 19.1537C112.401 19.5035 111.662 19.6776 110.826 19.6776C109.935 19.6776 109.135 19.4894 108.428 19.1145L108.426 19.113Z" fill="#1B1136"/>
<path d="M115.599 9.20654C115.352 8.97598 115.229 8.68894 115.229 8.34544C115.229 8.00194 115.352 7.7149 115.599 7.48433C115.845 7.25376 116.151 7.1377 116.516 7.1377C116.882 7.1377 117.188 7.24749 117.434 7.46708C117.68 7.68667 117.804 7.96273 117.804 8.29525C117.804 8.64973 117.683 8.94774 117.442 9.18929C117.2 9.43084 116.891 9.55161 116.516 9.55161C116.141 9.55161 115.845 9.43711 115.599 9.20654ZM115.503 10.9695H117.516V19.5649H115.503V10.9695Z" fill="#1B1136"/>
<path d="M127.278 15.9117H120.533C120.65 16.5453 120.959 17.0457 121.458 17.4158C121.957 17.786 122.577 17.9711 123.317 17.9711C124.261 17.9711 125.039 17.6605 125.651 17.0378L126.73 18.277C126.345 18.7381 125.855 19.0879 125.265 19.3231C124.674 19.56 124.009 19.6776 123.268 19.6776C122.324 19.6776 121.493 19.4894 120.773 19.1145C120.054 18.7397 119.499 18.2158 119.107 17.5445C118.715 16.8731 118.519 16.114 118.519 15.267C118.519 14.42 118.708 13.6765 119.09 13.0052C119.471 12.3339 119.999 11.8116 120.675 11.4352C121.352 11.0603 122.114 10.8721 122.961 10.8721C123.808 10.8721 124.547 11.0572 125.207 11.4273C125.868 11.7975 126.382 12.3182 126.752 12.9895C127.123 13.6609 127.308 14.4357 127.308 15.3156C127.308 15.4552 127.297 15.6544 127.275 15.9117H127.278ZM121.33 13.0539C120.884 13.435 120.613 13.9416 120.517 14.5753H125.396C125.309 13.9526 125.047 13.4491 124.607 13.0617C124.166 12.6758 123.618 12.4829 122.964 12.4829C122.31 12.4829 121.775 12.6727 121.33 13.0539Z" fill="#1B1136"/>
<path d="M135.801 11.8226C136.455 12.4563 136.783 13.3942 136.783 14.6396V19.5647H134.77V14.8968C134.77 14.1455 134.593 13.5793 134.238 13.1982C133.884 12.817 133.38 12.6272 132.725 12.6272C131.984 12.6272 131.399 12.8499 130.969 13.2954C130.539 13.7409 130.326 14.3824 130.326 15.2184V19.5647H128.313V10.9693H130.229V12.0798C130.561 11.683 130.98 11.3818 131.485 11.1779C131.989 10.974 132.558 10.8721 133.192 10.8721C134.276 10.8721 135.145 11.1889 135.799 11.821L135.801 11.8226Z" fill="#1B1136"/>
<path d="M140.041 19.113C139.334 18.7381 138.78 18.2142 138.383 17.5429C137.986 16.8716 137.787 16.1124 137.787 15.2654C137.787 14.4184 137.986 13.6609 138.383 12.9958C138.78 12.3308 139.331 11.81 140.033 11.4352C140.736 11.0603 141.539 10.8721 142.44 10.8721C143.288 10.8721 144.03 11.0446 144.67 11.3865C145.309 11.73 145.789 12.2241 146.11 12.8672L144.565 13.7691C144.317 13.3723 144.01 13.0742 143.64 12.875C143.27 12.6774 142.865 12.577 142.424 12.577C141.673 12.577 141.05 12.8217 140.557 13.3095C140.063 13.7973 139.817 14.4498 139.817 15.2654C139.817 16.0811 140.062 16.7336 140.55 17.2214C141.037 17.7092 141.663 17.9538 142.426 17.9538C142.866 17.9538 143.271 17.855 143.641 17.6558C144.012 17.4582 144.321 17.1602 144.567 16.7634L146.112 17.6652C145.779 18.3083 145.293 18.8055 144.655 19.1537C144.016 19.5035 143.277 19.6776 142.441 19.6776C141.55 19.6776 140.75 19.4894 140.043 19.1145L140.041 19.113Z" fill="#1B1136"/>
<path d="M155.373 15.9117H148.627C148.745 16.5453 149.054 17.0457 149.553 17.4158C150.052 17.786 150.671 17.9711 151.412 17.9711C152.356 17.9711 153.134 17.6605 153.746 17.0378L154.825 18.277C154.439 18.7381 153.95 19.0879 153.36 19.3231C152.77 19.56 152.104 19.6776 151.363 19.6776C150.419 19.6776 149.587 19.4894 148.867 19.1145C148.149 18.7397 147.594 18.2158 147.202 17.5445C146.809 16.8731 146.613 16.114 146.613 15.267C146.613 14.42 146.803 13.6765 147.184 13.0052C147.565 12.3339 148.094 11.8116 148.77 11.4352C149.446 11.0603 150.209 10.8721 151.056 10.8721C151.903 10.8721 152.642 11.0572 153.302 11.4273C153.962 11.7975 154.477 12.3182 154.847 12.9895C155.217 13.6609 155.402 14.4357 155.402 15.3156C155.402 15.4552 155.392 15.6544 155.37 15.9117H155.373ZM149.424 13.0539C148.979 13.435 148.707 13.9416 148.612 14.5753H153.49C153.404 13.9526 153.142 13.4491 152.701 13.0617C152.26 12.6758 151.713 12.4829 151.059 12.4829C150.405 12.4829 149.87 12.6727 149.424 13.0539Z" fill="#1B1136"/>
<path d="M63.5223 33.0538H57.8876L56.777 35.6607H54.6201L59.6916 24.3926H61.7528L66.84 35.6607H64.6501L63.5238 33.0538H63.5223ZM62.8305 31.4116L60.7065 26.4865L58.5982 31.4116H62.8321H62.8305Z" fill="#1B1136"/>
<path d="M68.7141 35.2096C68.0067 34.8348 67.4529 34.3109 67.0561 33.6396C66.6592 32.9698 66.46 32.2091 66.46 31.3621C66.46 30.5151 66.6592 29.7575 67.0561 29.0925C67.4529 28.4275 68.0035 27.9067 68.7063 27.5318C69.409 27.157 70.2122 26.9688 71.1126 26.9688C71.9597 26.9688 72.7032 27.1413 73.3432 27.4832C73.9817 27.8267 74.4617 28.3192 74.7833 28.9639L73.2381 29.8658C72.9903 29.4689 72.6828 29.1709 72.3126 28.9717C71.9424 28.7741 71.5377 28.6737 71.0969 28.6737C70.3455 28.6737 69.7228 28.9184 69.2302 29.4062C68.7361 29.894 68.4898 30.5465 68.4898 31.3621C68.4898 32.1777 68.7345 32.8302 69.2224 33.318C69.7102 33.8074 70.3361 34.0505 71.0985 34.0505C71.5393 34.0505 71.944 33.9517 72.3142 33.7525C72.6844 33.5533 72.9934 33.2569 73.2397 32.8585L74.7848 33.7604C74.4523 34.405 73.966 34.9007 73.3276 35.2489C72.6891 35.5986 71.9503 35.7712 71.1142 35.7712C70.2232 35.7712 69.4232 35.5829 68.7157 35.2081L68.7141 35.2096Z" fill="#1B1136"/>
<path d="M82.3398 27.8769C83.0096 28.4839 83.3453 29.3984 83.3453 30.6218V35.6598H81.4457V34.6136C81.1994 34.9901 80.8464 35.2771 80.3915 35.4747C79.935 35.6724 79.386 35.7727 78.7413 35.7727C78.0966 35.7727 77.5334 35.6629 77.0503 35.4434C76.5671 35.2238 76.1938 34.9179 75.9318 34.5258C75.6683 34.1337 75.5381 33.6913 75.5381 33.1973C75.5381 32.4256 75.8251 31.8044 76.3993 31.3386C76.9734 30.8727 77.877 30.639 79.1115 30.639H81.3327V30.5104C81.3327 29.9097 81.1523 29.4485 80.7931 29.1254C80.4339 28.8039 79.9005 28.6423 79.1915 28.6423C78.7084 28.6423 78.233 28.7176 77.7672 28.8682C77.2997 29.0188 76.906 29.2274 76.5844 29.4956L75.7953 28.0306C76.2456 27.6871 76.7883 27.4252 77.422 27.2417C78.0558 27.0597 78.7256 26.9688 79.4346 26.9688C80.7005 26.9688 81.67 27.2715 82.3398 27.8785V27.8769ZM80.5045 33.9611C80.8966 33.7305 81.1727 33.3996 81.3343 32.9714V31.9738H79.2574C78.0981 31.9738 77.5193 32.355 77.5193 33.1173C77.5193 33.4827 77.6636 33.7713 77.9538 33.9862C78.244 34.2011 78.6456 34.3078 79.1617 34.3078C79.6778 34.3078 80.1139 34.1933 80.506 33.9627L80.5045 33.9611Z" fill="#1B1136"/>
<path d="M93.479 23.7207V35.6648H91.5464V34.5543C91.2139 34.9621 90.8029 35.268 90.315 35.4719C89.8272 35.6758 89.2875 35.7778 88.6977 35.7778C87.871 35.7778 87.1275 35.5958 86.4687 35.2303C85.8083 34.8665 85.2906 34.3473 84.9157 33.6775C84.5392 33.0062 84.3525 32.2361 84.3525 31.3671C84.3525 30.4982 84.5408 29.7312 84.9157 29.0646C85.2906 28.3995 85.8098 27.8835 86.4687 27.5196C87.1291 27.1541 87.871 26.9722 88.6977 26.9722C89.2672 26.9722 89.7864 27.0679 90.2601 27.2624C90.7323 27.4553 91.1339 27.7455 91.468 28.1313V23.7207H93.4806H93.479ZM90.2429 33.7246C90.6287 33.505 90.9346 33.1913 91.1605 32.7835C91.3864 32.3757 91.4978 31.9036 91.4978 31.3671C91.4978 30.8307 91.3848 30.3586 91.1605 29.9508C90.9346 29.543 90.6287 29.2293 90.2429 29.0097C89.857 28.7901 89.4224 28.6803 88.9393 28.6803C88.4562 28.6803 88.0216 28.7901 87.6357 29.0097C87.2499 29.2293 86.944 29.5445 86.7181 29.9508C86.4922 30.3586 86.3808 30.8307 86.3808 31.3671C86.3808 31.9036 86.4938 32.3757 86.7181 32.7835C86.944 33.1913 87.2499 33.505 87.6357 33.7246C88.0216 33.9442 88.4562 34.054 88.9393 34.054C89.4224 34.054 89.857 33.9442 90.2429 33.7246Z" fill="#1B1136"/>
<path d="M103.24 32.0068H96.4946C96.6123 32.6404 96.9213 33.1424 97.4201 33.5125C97.919 33.8827 98.5386 34.0678 99.279 34.0678C100.223 34.0678 101.001 33.7572 101.613 33.1345L102.692 34.3736C102.307 34.8348 101.817 35.1845 101.227 35.4198C100.636 35.6567 99.9708 35.7743 99.2304 35.7743C98.286 35.7743 97.4546 35.5861 96.7346 35.2112C96.0162 34.8363 95.4609 34.3125 95.0687 33.6411C94.6766 32.9714 94.4805 32.2107 94.4805 31.3637C94.4805 30.5167 94.6703 29.7732 95.0515 29.1019C95.4326 28.4306 95.9613 27.9083 96.6374 27.5318C97.3135 27.157 98.0758 26.9688 98.9229 26.9688C99.77 26.9688 100.509 27.1538 101.169 27.524C101.83 27.8942 102.344 28.4149 102.714 29.0862C103.085 29.7575 103.27 30.5324 103.27 31.4123C103.27 31.5519 103.259 31.7495 103.237 32.0083L103.24 32.0068ZM97.2915 29.1505C96.846 29.5317 96.5746 30.0383 96.4789 30.672H101.356C101.27 30.0493 101.008 29.5458 100.567 29.1584C100.126 28.7725 99.5786 28.5796 98.9245 28.5796C98.2703 28.5796 97.7354 28.771 97.2899 29.1505H97.2915Z" fill="#1B1136"/>
<path d="M117.705 27.9098C118.339 28.5372 118.656 29.4783 118.656 30.7347V35.6598H116.643V30.992C116.643 30.2406 116.477 29.6744 116.145 29.2933C115.812 28.9121 115.334 28.7223 114.712 28.7223C114.036 28.7223 113.494 28.9451 113.086 29.3905C112.678 29.836 112.474 30.4712 112.474 31.2978V35.6598H110.461V30.992C110.461 30.2406 110.295 29.6744 109.963 29.2933C109.63 28.9121 109.152 28.7223 108.53 28.7223C107.843 28.7223 107.299 28.9419 106.896 29.3827C106.494 29.8234 106.292 30.4618 106.292 31.2978V35.6598H104.279V27.0644H106.195V28.1592C106.516 27.7734 106.919 27.4785 107.403 27.2746C107.886 27.0707 108.422 26.9688 109.012 26.9688C109.655 26.9688 110.228 27.0895 110.726 27.3311C111.225 27.5726 111.619 27.9287 111.909 28.4008C112.264 27.9506 112.72 27.5993 113.277 27.3468C113.836 27.0942 114.452 26.9688 115.128 26.9688C116.212 26.9688 117.07 27.2824 117.704 27.9098H117.705Z" fill="#1B1136"/>
<path d="M128.3 27.0645L124.275 36.3515C123.899 37.2848 123.444 37.942 122.907 38.3231C122.371 38.7043 121.721 38.8941 120.959 38.8941C120.529 38.8941 120.106 38.8251 119.687 38.6855C119.268 38.5459 118.924 38.3529 118.656 38.1067L119.461 36.626C119.654 36.808 119.881 36.9538 120.145 37.0605C120.407 37.1672 120.674 37.2205 120.942 37.2205C121.296 37.2205 121.588 37.1295 121.819 36.9476C122.049 36.7656 122.261 36.4598 122.454 36.03L122.598 35.6928L118.848 27.0645H120.94L123.645 33.4231L126.365 27.0645H128.297H128.3Z" fill="#1B1136"/>
</g>
<defs>
<clipPath id="clip0_2238_670">
<rect width="155.407" height="44.4607" fill="white" transform="translate(0 0.777344)"/>
</clipPath>
</defs>
</svg>
