<svg width="47" height="45" viewBox="0 0 47 45" fill="none" xmlns="http://www.w3.org/2000/svg">
<path d="M10.9637 13.0076C9.95348 13.2789 8.96836 13.6459 8.02246 14.1039C8.65149 6.22223 15.2618 0 23.3028 0C31.3437 0 37.9541 6.22223 38.5831 14.1039C37.6372 13.6444 36.6521 13.2773 35.6403 13.006C34.5454 7.19 29.4315 2.77624 23.3028 2.77624C17.174 2.77624 12.0586 7.19157 10.9653 13.0076H10.9637ZM37.8662 20.1223C37.5447 19.887 37.209 19.6674 36.8576 19.4651C36.3823 19.1906 35.8897 18.9537 35.383 18.7545C34.7038 21.1481 33.3297 23.2514 31.4959 24.8356C31.7673 25.852 31.943 26.8903 32.0167 27.9381C34.7305 26.0543 36.8121 23.3204 37.8678 20.1223H37.8662ZM26.3805 27.5068C25.3954 27.7562 24.3648 27.8895 23.3028 27.8895C22.2408 27.8895 21.2118 27.7562 20.2266 27.5068C20.0886 28.4526 20.0729 29.4062 20.1749 30.3442C21.1851 30.5544 22.2298 30.6657 23.3012 30.6657C24.3726 30.6657 25.4189 30.5544 26.4291 30.3442C26.5342 29.3937 26.5154 28.4416 26.3789 27.5068H26.3805ZM11.2241 18.7561C10.7174 18.9553 10.2233 19.1906 9.74956 19.4651C9.39661 19.669 9.06405 19.8948 8.74248 20.1301C9.79818 23.3283 11.8814 26.0622 14.5967 27.9444C14.6689 26.9045 14.843 25.8661 15.1144 24.8403C13.279 23.2561 11.9033 21.1512 11.2241 18.7561Z" fill="#22BBAD"/>
<path d="M19.4737 17.2949C17.1819 16.4965 14.6689 16.3569 12.2516 16.9671C12.1732 16.4338 12.1308 15.8895 12.1308 15.3343C12.1308 14.928 12.1559 14.5265 12.1983 14.1312C15.5019 13.4442 18.9184 13.8834 21.9114 15.2982C21.0408 15.8848 20.2235 16.5514 19.4737 17.2949ZM24.3428 20.3927C25.0487 21.1189 25.6762 21.9424 26.2064 22.8584C26.735 23.7728 27.1335 24.728 27.4096 25.7005C28.2943 25.3476 29.1273 24.8833 29.8912 24.3233C29.568 23.3493 29.1429 22.3925 28.6112 21.4702C28.0778 20.5464 27.4613 19.6978 26.7758 18.9308C25.9068 19.3135 25.0879 19.8045 24.3428 20.3927ZM26.7648 39.3496C29.0065 36.8352 30.3351 33.6669 30.6065 30.373C29.6669 30.8295 28.6818 31.1949 27.6606 31.471C27.2072 33.8551 26.0731 36.1012 24.3381 37.8877C24.7632 38.2249 25.2119 38.5339 25.6872 38.8084C26.037 39.0108 26.3978 39.188 26.7648 39.3496ZM4.45536 35.4158C1.39176 30.1111 2.6561 23.4779 7.1409 19.621C6.87423 18.6203 6.69854 17.5851 6.62325 16.5216C0.113304 21.0075 -1.96988 29.8413 2.0506 36.8039C6.07108 43.7664 14.7646 46.3796 21.9051 42.9853C21.0298 42.3924 20.222 41.7227 19.4831 40.9871C13.8987 42.9461 7.52052 40.7236 4.45536 35.4173V35.4158Z" fill="#E2195B"/>
<path d="M19.1926 25.7026C18.3079 25.3496 17.4734 24.8885 16.7094 24.3286C17.0326 23.3529 17.4577 22.3962 17.991 21.4723C18.5244 20.5485 19.1409 19.6999 19.8264 18.9329C20.6954 19.3156 21.5127 19.8066 22.2594 20.3948C21.5535 21.121 20.926 21.9444 20.3958 22.8604C19.8672 23.7749 19.4687 24.7301 19.1926 25.7026ZM34.3475 16.9676C34.4259 16.4343 34.4683 15.89 34.4683 15.3348C34.4683 14.927 34.4385 14.527 34.3961 14.1302C31.0941 13.4447 27.6791 13.8839 24.6892 15.2987C25.5598 15.8853 26.3771 16.5519 27.1269 17.2954C29.4187 16.497 31.9317 16.3574 34.3475 16.9676ZM39.9758 16.5221C39.9005 17.5856 39.7233 18.6208 39.4566 19.6199C43.9445 23.4753 45.2089 30.11 42.1453 35.4163C39.0817 40.7225 32.7019 42.9451 27.1175 40.986C26.3787 41.7216 25.5708 42.393 24.6955 42.9858C31.836 46.3816 40.5296 43.767 44.55 36.8044C48.5705 29.8418 46.4873 21.008 39.9774 16.5221H39.9758ZM15.9941 30.3767C16.2655 33.669 17.5957 36.8373 19.8358 39.3501C20.2029 39.1885 20.5652 39.0113 20.9135 38.8089C21.3888 38.5344 21.8374 38.2239 22.2625 37.8882C20.5291 36.1017 19.395 33.8588 18.9417 31.4778C17.9205 31.2033 16.9338 30.8331 15.9941 30.3767Z" fill="#FFCB05"/>
</svg>
